<?xml version="1.0" encoding="UTF-8" standalone="no"?>
<!-- Created with Inkscape (http://www.inkscape.org/) -->

<svg
   xmlns:dc="http://purl.org/dc/elements/1.1/"
   xmlns:cc="http://creativecommons.org/ns#"
   xmlns:rdf="http://www.w3.org/1999/02/22-rdf-syntax-ns#"
   xmlns:svg="http://www.w3.org/2000/svg"
   xmlns="http://www.w3.org/2000/svg"
   xmlns:sodipodi="http://sodipodi.sourceforge.net/DTD/sodipodi-0.dtd"
   xmlns:inkscape="http://www.inkscape.org/namespaces/inkscape"
   id="svg2"
   version="1.1"
   inkscape:version="0.48.3.1 r9886"
   width="197.5"
   height="96.25"
   xml:space="preserve"
   sodipodi:docname="Logo.svg"><sodipodi:namedview
     pagecolor="#ffffff"
     bordercolor="#666666"
     borderopacity="1"
     objecttolerance="10"
     gridtolerance="10"
     guidetolerance="10"
     inkscape:pageopacity="0"
     inkscape:pageshadow="2"
     inkscape:window-width="1280"
     inkscape:window-height="754"
     id="namedview4"
     showgrid="false"
     inkscape:zoom="1.3855713"
     inkscape:cx="7.5617774"
     inkscape:cy="70.555941"
     inkscape:window-x="0"
     inkscape:window-y="24"
     inkscape:window-maximized="1"
     inkscape:current-layer="g3070" /><metadata
     id="metadata8"><rdf:RDF><cc:Work
         rdf:about=""><dc:format>image/svg+xml</dc:format><dc:type
           rdf:resource="http://purl.org/dc/dcmitype/StillImage" /><dc:title></dc:title></cc:Work></rdf:RDF></metadata><defs
     id="defs6" /><g
     id="g10"
     inkscape:groupmode="layer"
     inkscape:label="Logo"
     transform="matrix(1.25,0,0,-1.25,0,96.25)"><g
       id="g12" /><g
       id="g3070"
       transform="matrix(0.80668248,0,0,0.80668248,21.520614,14.910794)"><g
         id="g3100"
         transform="translate(-0.05164896,0.18898815)"><path
           style="fill:#0000ff;fill-opacity:1;fill-rule:nonzero;stroke:#000080;stroke-width:0.99171609;stroke-linecap:round;stroke-linejoin:round;stroke-miterlimit:4;stroke-opacity:1;stroke-dasharray:none"
           d="M 114.89387,53.297257 114.19406,67.89144 C 174.1148,77.303748 172.71862,21.171746 146.94373,-4.8868604 178.78046,43.03417 148.15075,64.632164 114.89387,53.297257 z"
           id="path3098"
           inkscape:connector-curvature="0"
           sodipodi:nodetypes="cccc" /><path
           sodipodi:nodetypes="cccc"
           inkscape:connector-curvature="0"
           id="path3090"
           d="m 27.717513,4.8092556 0.69981,-14.5941837 C -31.503426,-19.197236 -30.107238,36.934766 -4.332353,62.993373 -36.169088,15.072343 -5.5393731,-6.5256514 27.717513,4.8092556 z"
           style="fill:#0000ff;fill-opacity:1;fill-rule:nonzero;stroke:#000080;stroke-width:0.99171609;stroke-linecap:round;stroke-linejoin:round;stroke-miterlimit:4;stroke-opacity:1;stroke-dasharray:none" /></g><rect
         style="fill:#00ff00;fill-opacity:1;fill-rule:nonzero;stroke:#008000;stroke-width:0.99171609000000005;stroke-linecap:round;stroke-linejoin:round;stroke-miterlimit:4;stroke-opacity:1;stroke-dasharray:none"
         id="rect3088"
         width="89.075073"
         height="81.483444"
         x="26.716503"
         y="-69.983963"
         transform="scale(1,-1)" /><rect
         transform="matrix(0.9899912,-0.1411291,0,-1,0,0)"
         y="-74.524712"
         x="1.9588764"
         height="70.249565"
         width="140.03108"
         id="rect3068"
         style="fill:#ff0000;fill-opacity:1;fill-rule:nonzero;stroke:#aa0000;stroke-width:0.99671668000000002;stroke-linecap:round;stroke-linejoin:round;stroke-miterlimit:4;stroke-opacity:1;stroke-dasharray:none" /><g
         id="text3115"
         style="font-size:11.19999981px;font-style:normal;font-weight:normal;line-height:125%;letter-spacing:0px;word-spacing:0px;fill:#000000;fill-opacity:1;stroke:none;font-family:Sans"
         transform="matrix(3.1080517,0,0,-3.1284899,167.21616,-196.8631)"><path
           inkscape:connector-curvature="0"
           id="path3128"
           d="m -49.834274,-83.983182 c 0,0 0,4.447445 0,4.447445 0,0 2.748906,0.205492 2.748906,0.205492 0.9724,0.0727 1.708375,-0.05499 2.220241,-0.378641 0.505329,-0.319512 0.755592,-0.810272 0.755601,-1.475325 -9e-6,-0.660113 -0.250272,-1.199029 -0.755601,-1.620764 -0.511866,-0.427161 -1.247841,-0.703709 -2.220241,-0.827707 0,0 -2.748906,-0.3505 -2.748906,-0.3505 m -2.322056,-1.648319 c 0,0 5.070962,0.725728 5.070962,0.725728 1.715065,0.245462 2.962871,0.704884 3.783889,1.375259 0.810239,0.652488 1.209065,1.499235 1.209077,2.550389 -1.2e-5,1.060767 -0.398838,1.831686 -1.209077,2.320355 -0.821018,0.499481 -2.068824,0.70406 -3.783889,0.602618 0,0 -2.748906,-0.162585 -2.748906,-0.162585 0,0 0,4.756624 0,4.756624 0,0 -2.322056,-0.0063 -2.322056,-0.0063 0,0 0,-12.162056 0,-12.162056" /><path
           inkscape:connector-curvature="0"
           id="path3130"
           d="m -36.285379,-77.172198 c -1.191294,-0.06631 -2.040448,0.0028 -2.521854,0.211052 -0.487822,0.211035 -0.734173,0.602962 -0.734172,1.173668 -1e-6,0.454713 0.183486,0.820933 0.54775,1.096606 0.366289,0.268477 0.856412,0.406179 1.465345,0.414996 0.822779,0.01192 1.468113,-0.21751 1.945136,-0.683301 0.475683,-0.463733 0.711113,-1.084495 0.71112,-1.866993 0,0 0,-0.267354 0,-0.267354 0,0 -1.413325,-0.07867 -1.413325,-0.07867 m 2.778573,-0.331152 c 0,0 0,4.084762 0,4.084762 0,0 -1.365248,-0.0037 -1.365248,-0.0037 0,0 0,-1.108536 0,-1.108536 -0.319361,0.439482 -0.721427,0.766157 -1.209024,0.979184 -0.494443,0.211559 -1.108844,0.318455 -1.849292,0.318455 -0.958662,0 -1.7406,-0.223106 -2.333681,-0.67467 -0.596694,-0.463479 -0.898627,-1.08207 -0.898627,-1.850201 0,-0.896149 0.376297,-1.551437 1.117773,-1.959743 0.732717,-0.399952 1.796849,-0.548334 3.163511,-0.453757 0,0 2.00934,0.13906 2.00934,0.13906 0,0 0,-0.117378 0,-0.117378 -7e-6,-0.55209 -0.212584,-0.996185 -0.641665,-1.335397 -0.429216,-0.347338 -1.043268,-0.560734 -1.851765,-0.638285 -0.523658,-0.05022 -1.041068,-0.04731 -1.551793,0.0099 -0.51794,0.05802 -1.022898,0.172342 -1.514188,0.344051 0,0 0,-1.197404 0,-1.197404 0.589936,-0.120775 1.153537,-0.195286 1.691788,-0.224631 0.530443,-0.03346 1.039599,-0.02272 1.528198,0.0313 1.286749,0.142297 2.218105,0.519639 2.82047,1.12781 0.591994,0.597727 0.884195,1.438236 0.884203,2.529206" /><path
           inkscape:connector-curvature="0"
           id="path3132"
           d="m -25.143973,-77.185484 c 0,0 0,3.789701 0,3.789701 0,0 -1.047429,-0.0029 -1.047429,-0.0029 0,0 0,-3.822052 0,-3.822052 -5e-6,-0.604679 -0.119955,-1.067215 -0.361277,-1.389515 -0.243257,-0.324862 -0.611792,-0.511786 -1.110119,-0.5594 -0.609569,-0.05823 -1.098765,0.08333 -1.461675,0.428493 -0.367106,0.349154 -0.552251,0.855009 -0.552249,1.514535 0,0 0,3.818435 0,3.818435 0,0 -1.221097,-0.0033 -1.221097,-0.0033 0,0 0,-6.884755 0,-6.884755 0,0 1.221097,0.131928 1.221097,0.131928 0,0 0,1.049617 0,1.049617 0.283736,-0.378359 0.613726,-0.646736 0.988504,-0.806213 0.374512,-0.157145 0.799752,-0.208523 1.27358,-0.156135 0.766061,0.08472 1.33309,0.375188 1.71164,0.868309 0.373835,0.483256 0.559019,1.156172 0.559025,2.023239" /><path
           inkscape:connector-curvature="0"
           id="path3134"
           d="m -19.538448,-78.205524 c 0,0 0,-3.07786 0,-3.07786 0,0 0.831871,0.123981 0.831871,0.123981 0,0 0,7.781174 0,7.781174 0,0 -0.831871,-0.0023 -0.831871,-0.0023 0,0 0,-0.853268 0,-0.853268 -0.178139,0.336415 -0.405571,0.587778 -0.683531,0.753682 -0.27765,0.164166 -0.615853,0.246876 -1.016803,0.246876 -0.6691,0 -1.226605,-0.289126 -1.665405,-0.874064 -0.442109,-0.593933 -0.665728,-1.374654 -0.665727,-2.335274 -1e-6,-0.960614 0.223618,-1.716606 0.665727,-2.261657 0.4388,-0.536409 0.996305,-0.763886 1.665405,-0.689904 0.40095,0.04434 0.739153,0.166175 1.016803,0.364458 0.27796,0.193209 0.505392,0.468015 0.683531,0.824124 m -3.04113,1.817735 c -10e-7,0.726057 0.141394,1.301133 0.422094,1.722091 0.281273,0.413356 0.661852,0.621988 1.137681,0.628878 0.467802,0.0068 0.830761,-0.185009 1.092873,-0.572458 0.259601,-0.387143 0.388477,-0.92301 0.388482,-1.610367 -5e-6,-0.687351 -0.128881,-1.235772 -0.388482,-1.648209 -0.262112,-0.419831 -0.625071,-0.653463 -1.092873,-0.698423 -0.475829,-0.04572 -0.856408,0.122591 -1.137681,0.508398 -0.2807,0.386383 -0.422095,0.944039 -0.422094,1.67009" /><path
           inkscape:connector-curvature="0"
           id="path3136"
           d="m -15.318158,-78.00899 c -0.388025,-0.03721 -0.699079,0.11654 -0.930185,0.46406 -0.233235,0.347529 -0.350658,0.844266 -0.350657,1.487807 -1e-6,0.643548 0.116059,1.154821 0.346607,1.53125 0.231143,0.369924 0.543568,0.556523 0.934235,0.562252 0.379503,0.0056 0.676184,-0.168664 0.89292,-0.52029 0.214826,-0.348535 0.321534,-0.826186 0.321538,-1.435247 -4e-6,-0.606011 -0.106712,-1.093929 -0.321538,-1.466203 -0.216736,-0.378646 -0.513417,-0.587225 -0.89292,-0.623629 m 0,-0.730413 c 0.616626,0.06819 1.090331,0.358713 1.428932,0.867464 0.333918,0.501734 0.499156,1.164087 0.49916,1.992238 -4e-6,0.825156 -0.165242,1.469227 -0.49916,1.937041 -0.338601,0.471313 -0.812306,0.709453 -1.428932,0.709453 -0.634959,0 -1.144356,-0.249066 -1.520081,-0.752711 -0.378508,-0.514301 -0.569863,-1.221518 -0.569863,-2.11594 0,-0.89767 0.191355,-1.583714 0.569863,-2.052924 0.375725,-0.462092 0.885122,-0.654829 1.520081,-0.584621" /><path
           inkscape:connector-curvature="0"
           id="path3138"
           d="m -9.6963825,-77.827001 c 0,0 0,0.714406 0,0.714406 -0.1602673,-0.133571 -0.3227365,-0.237533 -0.4874445,-0.311568 -0.16383,-0.07719 -0.330987,-0.124127 -0.501533,-0.140489 -0.386327,-0.03705 -0.690912,0.09757 -0.910341,0.406549 -0.221542,0.309052 -0.333114,0.762861 -0.333112,1.359195 -2e-6,0.596338 0.11157,1.063936 0.333112,1.400362 0.219429,0.33035 0.524014,0.497217 0.910341,0.502883 0.170546,0.0025 0.337703,-0.02455 0.501533,-0.08083 0.164708,-0.05862 0.3271772,-0.146012 0.4874445,-0.261865 0,0 0,0.706098 0,0.706098 -0.1582052,0.09897 -0.3237755,0.173535 -0.4968635,0.22345 -0.172337,0.0503 -0.357702,0.07561 -0.556404,0.07561 -0.549545,0 -0.995752,-0.230348 -1.332176,-0.696074 -0.341359,-0.472555 -0.513922,-1.109794 -0.513922,-1.906503 0,-0.808506 0.173717,-1.42946 0.517334,-1.858101 0.340856,-0.422159 0.798997,-0.59891 1.36736,-0.536066 0.181368,0.02006 0.357072,0.06478 0.527227,0.133891 0.168862,0.06581 0.3313012,0.155568 0.4874445,0.26906" /></g><g
         id="text3119"
         style="font-size:11.19999981px;font-style:normal;font-weight:normal;line-height:125%;letter-spacing:0px;word-spacing:0px;fill:#000000;fill-opacity:1;stroke:none;font-family:Sans"
         transform="matrix(3.1080517,0,0,-3.1284899,167.21616,-263.53227)"><path
           inkscape:connector-curvature="0"
           id="path3141"
           d="m -51.450351,-93.028035 c 0,0 0,2.890683 0,2.890683 0,0 0.913933,0.06696 0.913933,0.06696 0.345893,0.02535 0.616205,-0.08369 0.808718,-0.328563 0.193809,-0.246524 0.291208,-0.610691 0.291212,-1.09125 -4e-6,-0.476989 -0.0974,-0.848581 -0.291212,-1.11343 -0.192513,-0.263057 -0.462825,-0.397634 -0.808718,-0.404987 0,0 -0.913933,-0.01941 -0.913933,-0.01941 m -0.70598,-0.859477 c 0,0 1.619913,0.0095 1.619913,0.0095 0.618697,0.0036 1.094858,0.209287 1.42101,0.620398 0.332453,0.412272 0.500117,1.015526 0.500121,1.806204 -4e-6,0.797909 -0.167668,1.388915 -0.500121,1.769728 -0.326152,0.376711 -0.802313,0.5356 -1.42101,0.480744 0,0 -0.913933,-0.08103 -0.913933,-0.08103 0,0 0,3.091639 0,3.091639 0,0 -0.70598,-0.101872 -0.70598,-0.101872 0,0 0,-7.595279 0,-7.595279" /><path
           inkscape:connector-curvature="0"
           id="path3143"
           d="m -47.786414,-88.089351 c 0,0 0,-3.723924 0,-3.723924 0,0 0.749447,0.0303 0.749447,0.0303 0,0 0,3.732112 0,3.732112 -1e-6,0.589575 0.08536,1.042915 0.256822,1.361379 0.172438,0.316555 0.432957,0.498496 0.783833,0.544864 0.42702,0.05643 0.768003,-0.07995 1.019985,-0.411754 0.257006,-0.334173 0.386311,-0.818762 0.386316,-1.451687 0,0 0,-3.675975 0,-3.675975 0,0 0.833092,0.03368 0.833092,0.03368 0,0 0,6.570139 0,6.570139 0,0 -0.833092,-0.120214 -0.833092,-0.120214 0,0 0,-0.995697 0,-0.995697 -0.198941,0.36686 -0.428948,0.627179 -0.689319,0.781729 -0.255312,0.149876 -0.550038,0.199677 -0.883019,0.150733 -0.541434,-0.07958 -0.946027,-0.361271 -1.219096,-0.842801 -0.270593,-0.47716 -0.40497,-1.137042 -0.404969,-1.982891 m 1.922729,-3.799293 c 0,0 0,0 0,0" /><path
           inkscape:connector-curvature="0"
           id="path3145"
           d="m -37.80877,-87.809455 c -5e-6,-0.868539 -0.153427,-1.559577 -0.458235,-2.069717 -0.298556,-0.509677 -0.706183,-0.776401 -1.218958,-0.803179 -0.505112,-0.02637 -0.897682,0.192059 -1.181533,0.652024 -0.27811,0.452223 -0.416291,1.090632 -0.416289,1.918068 -2e-6,0.827444 0.138179,1.493447 0.416289,2.001201 0.283851,0.508368 0.676421,0.797326 1.181533,0.864358 0.512775,0.06805 0.920402,-0.121182 1.218958,-0.571398 0.304808,-0.458009 0.45823,-1.122811 0.458235,-1.991357 m -3.275015,-2.693414 c 0.19328,-0.397933 0.438166,-0.689317 0.735795,-0.873634 0.303734,-0.189969 0.669118,-0.277548 1.098135,-0.261283 0.723712,0.02746 1.322301,0.396129 1.78879,1.112757 0.476568,0.72662 0.717313,1.667132 0.71732,2.814045 -7e-6,1.146919 -0.240752,2.042913 -0.71732,2.681401 -0.466489,0.630373 -1.065078,0.888354 -1.78879,0.781977 -0.429017,-0.06306 -0.794401,-0.216135 -1.098135,-0.458164 -0.297629,-0.243477 -0.542515,-0.582198 -0.735795,-1.015878 0,0 0,1.027167 0,1.027167 0,0 -0.909337,-0.131216 -0.909337,-0.131216 0,0 0,-9.382313 0,-9.382313 0,0 0.909337,0 0.909337,0 0,0 0,3.705141 0,3.705141" /><path
           inkscape:connector-curvature="0"
           id="path3147"
           d="m -34.973371,-94.20801 c 0,0 1.111835,0 1.111835,0 0,0 0,10.55569 0,10.55569 0,0 -1.111835,-0.160436 -1.111835,-0.160436 0,0 0,-10.395254 0,-10.395254" /><path
           inkscape:connector-curvature="0"
           id="path3149"
           d="m -31.426955,-91.151808 c 0,0 1.224929,0.04953 1.224929,0.04953 0,0 0,7.978022 0,7.978022 0,0 -1.224929,-0.176756 -1.224929,-0.176756 0,0 0,-7.850794 0,-7.850794 m 0,-3.056202 c 0,0 1.224929,0 1.224929,0 0,0 0,1.659714 0,1.659714 0,0 -1.224929,-0.02647 -1.224929,-0.02647 0,0 0,-1.633246 0,-1.633246" /><path
           inkscape:connector-curvature="0"
           id="path3151"
           d="m -21.978697,-90.509551 c 0,0 0,1.372137 0,1.372137 -0.428973,-0.234801 -0.869881,-0.416104 -1.322285,-0.54464 -0.447578,-0.127146 -0.906117,-0.202567 -1.375178,-0.227064 -0.703913,-0.03674 -1.225255,0.04135 -1.570791,0.232568 -0.337665,0.189905 -0.505441,0.492669 -0.505438,0.909478 -3e-6,0.317579 0.120822,0.577212 0.363574,0.779809 0.244215,0.198836 0.739645,0.41171 1.495571,0.640867 0,0 0.490058,0.148198 0.490058,0.148198 1.035291,0.305049 1.785373,0.681099 2.234218,1.125898 0.459191,0.444848 0.69066,1.03132 0.690669,1.755797 -9e-6,0.824953 -0.345355,1.432136 -1.027742,1.816871 -0.666184,0.379394 -1.567182,0.482804 -2.68767,0.318106 -0.45799,-0.06732 -0.930888,-0.181834 -1.418091,-0.342657 -0.476489,-0.153246 -0.973895,-0.35268 -1.491335,-0.597248 0,0 0,-1.390398 0,-1.390398 0.488515,0.320194 0.9758,0.579224 1.461697,0.775882 0.491841,0.194066 0.984679,0.324464 1.478445,0.389989 0.671214,0.08907 1.195075,0.04564 1.565758,-0.132586 0.373997,-0.185006 0.562258,-0.488405 0.562264,-0.908952 -6e-6,-0.389392 -0.137247,-0.702853 -0.410394,-0.939222 -0.266078,-0.234278 -0.848127,-0.49159 -1.732988,-0.768538 0,0 -0.48852,-0.161585 -0.48852,-0.161585 -0.855882,-0.2628 -1.462901,-0.592414 -1.83192,-0.990192 -0.365627,-0.399003 -0.547183,-0.914473 -0.547182,-1.549153 -1e-6,-0.771369 0.267845,-1.353267 0.809029,-1.749718 0.548623,-0.401888 1.340563,-0.585391 2.390125,-0.54559 0.529799,0.0201 1.034715,0.07783 1.513712,0.173816 0.484533,0.09711 0.936386,0.233004 1.354414,0.408119" /><path
           inkscape:connector-curvature="0"
           id="path3153"
           d="m -9.7984496,-86.27446 c 0,0 0,6.094409 0,6.094409 0,0 -1.9538464,-0.281937 -1.9538464,-0.281937 0,0 0,-5.918916 0,-5.918916 -9e-6,-0.936419 -0.214568,-1.651207 -0.640789,-2.141049 -0.422435,-0.485451 -1.049047,-0.748553 -1.871668,-0.79197 -0.969556,-0.05115 -1.719954,0.176573 -2.261447,0.677861 -0.535097,0.495375 -0.800278,1.195546 -0.800275,2.104896 0,0 0,5.264832 0,5.264832 0,0 -1.674436,-0.241619 -1.674436,-0.241619 0,0 0,-12.700057 0,-12.700057 0,0 1.674436,0 1.674436,0 0,0 0,5.073537 0,5.073537 0.407663,-0.539506 0.891117,-0.937971 1.452756,-1.194069 0.575064,-0.259024 1.245434,-0.375353 2.015148,-0.346168 1.298099,0.04925 2.304377,0.441517 2.999016,1.183791 0.704798,0.747185 1.0610935,1.822086 1.0611054,3.216459" /></g></g></g></svg>